Coordinates
version=1
nRows=5
nColumns=40
inDegrees=yes

Units are S.I. units (second, meters, Newtons, ...)
If the header above contains a line with 'inDegrees', this indicates whether rotational values are in degrees (yes) or radians (no).

endheader
time	pelvis_tilt	pelvis_list	pelvis_rotation	pelvis_tx	pelvis_ty	pelvis_tz	hip_flexion_r	hip_adduction_r	hip_rotation_r	knee_angle_r	knee_angle_r_beta	ankle_angle_r	subtalar_angle_r	mtp_angle_r	hip_flexion_l	hip_adduction_l	hip_rotation_l	knee_angle_l	knee_angle_l_beta	ankle_angle_l	subtalar_angle_l	mtp_angle_l	lumbar_extension	lumbar_bending	lumbar_rotation	arm_flex_r	arm_add_r	arm_rot_r	elbow_flex_r	pro_sup_r	wrist_flex_r	wrist_dev_r	arm_flex_l	arm_add_l	arm_rot_l	elbow_flex_l	pro_sup_l	wrist_flex_l	wrist_dev_l
      0.17000000	      9.75424733	      8.36951559	    -12.11444637	      0.04030049	      0.92937842	     -0.23234480	    -13.90532150	    -12.26986944	      1.05497322	     48.60693807	      0.84835111	    -15.34003389	      0.00000000	      0.00000000	      9.27025509	     10.50893825	    -21.17262258	     17.11607363	      0.29873184	      2.45971190	      0.00000000	      0.00000000	    -13.37989535	    -10.54756970	     15.17461977	      2.01036694	      1.92915008	     -5.93472443	     58.48987140	     79.57699330	     10.07221385	      7.54786279	    -18.88292028	      2.96457651	     -7.85507423	     28.74835310	     87.36970536	     -0.13925690	     29.27148771
      0.18000000	      9.66077508	      9.11509818	    -12.76272671	      0.05248629	      0.92983241	     -0.23292966	    -11.39629783	    -13.16070594	      2.84855736	     52.37470652	      0.91411107	    -15.43934302	      0.00000000	      0.00000000	      8.84677834	     11.47028136	    -21.52658149	     17.04952140	      0.29757028	      2.97234789	      0.00000000	      0.00000000	    -13.17226914	    -11.36822682	     15.31157412	      1.60105923	      2.00391582	     -5.60222408	     58.28075781	     79.35913475	      9.99984489	      7.63375843	    -18.51140731	      2.98171776	     -7.76969194	     29.34632769	     87.29458599	      0.10528618	     28.80289596
      0.19000000	      9.38662678	      9.78043237	    -13.40675073	      0.06433544	      0.93010890	     -0.23355514	     -8.60254980	    -13.80882904	      4.77940664	     55.97146331	      0.97688632	    -15.02906890	      0.00000000	      0.00000000	      8.58937408	     12.32725691	    -21.85023108	     16.90873923	      0.29511317	      3.53648605	      0.00000000	      0.00000000	    -12.77075825	    -12.04357742	     15.48172622	      1.21040261	      2.06468097	     -5.31405923	     57.93406914	     79.25711689	     10.00390376	      7.75553392	    -18.04788151	      3.00110049	     -7.55429567	     29.85807766	     87.26706678	      0.12054828	     27.98330373
      0.20000000	      8.99004940	     10.37933688	    -14.03137714	      0.07588064	      0.93033356	     -0.23418939	     -5.64267433	    -14.21374595	      6.79716557	     59.30608216	      1.03508640	    -14.12282510	      0.00000000	      0.00000000	      8.41447161	     13.11163239	    -22.19887715	     16.64010590	      0.29042464	      4.12726129	      0.00000000	      0.00000000	    -12.27447578	    -12.61148965	     15.63443821	      0.85390528	      2.13671328	     -5.09374451	     57.48529394	     79.24192781	     10.03850488	      7.89781686	    -17.47066259	      2.99188616	     -7.11357029	     30.27228109	     87.26887634	     -0.10008410	     26.83425181
      0.21000000	      8.75477964	     10.89607398	    -14.61731291	      0.08724871	      0.93083287	     -0.23483404	     -2.91339198	    -14.46343447	      8.71003992	     62.24605226	      1.08639856	    -12.67358123	      0.00000000	      0.00000000	      7.99997472	     13.88102179	    -22.49831415	     16.23998051	      0.28344113	      4.59391833	      0.00000000	      0.00000000	    -11.98427882	    -13.11130702	     15.64585486	      0.58774747	      2.20415752	     -4.85337530	     56.89948771	     79.37141893	     10.04458819	      8.08130378	    -16.83006303	      2.97265675	     -6.58940475	     30.72588787	     87.27812220	     -0.34578046	     25.73927849
